<svg xmlns="http://www.w3.org/2000/svg" viewBox="0 0 842.3 842.28"><defs><style>.cls-1{fill:#030404;}.cls-2{font-size:83.4px;font-family:AkzidenzGroteskBE-Bold, Berthold Akzidenz Grotesk;font-weight:700;letter-spacing:0.01em;}.cls-3{letter-spacing:-0.01em;}.cls-4{letter-spacing:0.03em;}.cls-5{letter-spacing:0.07em;}.cls-6{letter-spacing:0.05em;}</style></defs><title>Loading</title><g id="Livello_2" data-name="Livello 2"><g id="Livello_1-2" data-name="Livello 1"><g id="Livello_2-2" data-name="Livello 2"><g id="Livello_1-2-2" data-name="Livello 1-2"><path class="cls-1" d="M416.58,771.06A343.9,343.9,0,0,1,195.5,691l-50.3,48.29c156.2,135.49,387.65,137.53,546.21,4.82l-54.68-52.32A343.93,343.93,0,0,1,416.58,771.06Z"/><path class="cls-1" d="M416.58,80.36A343.9,343.9,0,0,1,638.1,160.82l59.64-57.26C536.64-36.74,296-34.2,137.93,109.46l55.32,52.93A343.88,343.88,0,0,1,416.58,80.36Z"/><path class="cls-1" d="M761.93,425.71A343.74,343.74,0,0,1,689.5,637.2L745,690.32a421.1,421.1,0,0,0,5.23-532l-59.63,57.32A343.75,343.75,0,0,1,761.93,425.71Z"/><path class="cls-1" d="M71.23,425.71a343.77,343.77,0,0,1,69.83-208.19L86.57,165.38a421.09,421.09,0,0,0,6,519.17l50.32-48.31A343.75,343.75,0,0,1,71.23,425.71Z"/><path class="cls-1" d="M750.47,158.17l-2.38-2.48,2.16,2.69Z"/><path class="cls-1" d="M697.9,103.4l-.16.15c.69.6,1.36,1.21,2,1.82Z"/></g></g><text class="cls-2" transform="translate(185.26 446.28)">L<tspan class="cls-3" x="46.04" y="0">O</tspan><tspan class="cls-4" x="111.17" y="0">A</tspan><tspan class="cls-5" x="172.71" y="0">DI</tspan><tspan class="cls-6" x="271.62" y="0">N</tspan><tspan class="cls-4" x="336.67" y="0">G...</tspan></text></g></g></svg>