<svg xmlns="http://www.w3.org/2000/svg" viewBox="0 0 225.3 225.3"><defs><style>.cls-1{fill:#fefffe;}</style></defs><title>sx</title><g id="Livello_2" data-name="Livello 2"><g id="Livello_1-2" data-name="Livello 1"><g id="Livello_2-2" data-name="Livello 2"><g id="Livello_1-2-2" data-name="Livello 1-2"><path class="cls-1" d="M111.43,206.25a92,92,0,0,1-59.14-21.42L38.84,197.75A112.64,112.64,0,0,0,184.94,199l-14.63-14A92,92,0,0,1,111.43,206.25Z"/><path class="cls-1" d="M111.43,21.5A92,92,0,0,1,170.68,43l16-15.32A112.65,112.65,0,0,0,36.89,29.28l14.8,14.16A92,92,0,0,1,111.43,21.5Z"/><path class="cls-1" d="M203.8,113.87a91.94,91.94,0,0,1-19.37,56.57l14.85,14.21a112.64,112.64,0,0,0,1.4-142.3l-16,15.33A92,92,0,0,1,203.8,113.87Z"/><path class="cls-1" d="M19.05,113.87A92,92,0,0,1,37.73,58.18L23.15,44.24a112.63,112.63,0,0,0,1.6,138.87l13.46-12.92A92,92,0,0,1,19.05,113.87Z"/><path class="cls-1" d="M200.74,42.31l-.64-.66.58.72Z"/><path class="cls-1" d="M186.68,27.66l0,0,.53.49Z"/></g></g></g></g></svg>